<?xml version="1.0" encoding="utf-8"?>
<svg version="1.0" width="215.000000pt" height="234.000000pt" viewBox="0 0 215.000000 234.000000" preserveAspectRatio="xMidYMid meet" xmlns="http://www.w3.org/2000/svg">
  <g transform="translate(0.000000,234.000000) scale(0.100000,-0.100000)" fill="none" stroke="#40d6de">
    <path d="M 1072 2248 C 1065 2241 1060 2226 1060 2214 C 1060 2128 960 1921 725 1519 C 534 1193 447 1022 423 930 C 401 844 402 686 425 600 C 454 489 508 394 591 306 C 679 213 759 161 875 123 C 944 100 971 96 1080 96 C 1188 96 1216 100 1285 123 C 1510 197 1675 372 1736 600 C 1759 687 1759 844 1737 930 C 1714 1016 1642 1164 1468 1478 C 1261 1852 1167 2059 1144 2185 C 1141 2207 1133 2233 1128 2243 C 1118 2263 1089 2265 1072 2248 Z" style="paint-order: stroke; fill: rgb(64, 214, 222);"/>
    <path d="M 1087 2063 C 1084 2058 1044 1981 998 1890 C 951 1799 897 1698 876 1665 C 856 1632 836 1598 830 1590 C 769 1490 600 1190 556 1104 C 482 959 459 879 460 770 C 461 529 593 316 802 217 C 915 163 979 147 1085 147 C 1421 147 1700 428 1700 765 C 1700 872 1680 950 1623 1067 C 1597 1121 1576 1171 1577 1178 C 1577 1184 1574 1190 1570 1190 C 1562 1190 1543 1224 1442 1410 C 1405 1480 1373 1535 1356 1563 C 1322 1617 1191 1883 1160 1960 C 1142 2007 1122 2051 1117 2058 C 1106 2072 1093 2074 1087 2063 Z" style="paint-order: stroke; fill: rgb(255, 255, 255);"/>
    <path d="M 1066 1334 C 1063 1325 1060 1301 1060 1280 C 1060 1244 1058 1242 1022 1236 C 938 1223 860 1134 860 1051 C 860 998 875 962 913 922 C 958 874 993 859 1079 848 C 1171 837 1216 816 1241 776 C 1277 717 1256 654 1187 618 C 1089 568 954 613 934 704 C 926 743 912 760 889 760 C 865 760 856 743 858 702 C 864 623 937 549 1032 526 C 1056 521 1059 515 1062 473 C 1068 388 1130 389 1130 474 L 1130 516 L 1186 534 C 1321 576 1376 712 1302 822 C 1265 878 1184 920 1112 920 C 1021 920 936 979 936 1044 C 936 1115 1007 1170 1101 1170 C 1184 1170 1245 1127 1259 1056 C 1267 1019 1293 1001 1318 1016 C 1344 1033 1337 1103 1305 1150 C 1278 1189 1197 1240 1161 1240 C 1143 1240 1140 1246 1140 1279 C 1140 1336 1132 1350 1100 1350 C 1084 1350 1070 1343 1066 1334 Z" style="fill: rgb(64, 214, 222);"/>
    <path d="M 1548 743 C 1539 733 1530 705 1527 681 C 1519 615 1456 497 1400 442 C 1373 416 1329 383 1301 369 C 1252 346 1230 315 1245 291 C 1256 272 1304 280 1355 309 C 1487 385 1585 536 1606 690 C 1611 732 1610 739 1592 749 C 1566 763 1566 763 1548 743 Z" style="fill: rgb(64, 214, 222);"/>
    <path d="M 138 625 C 103 605 80 561 80 513 C 80 439 132 400 229 400 C 299 400 333 377 376 303 C 398 266 407 259 429 262 C 453 265 455 269 458 324 C 464 432 406 549 319 607 C 269 640 180 649 138 625 Z" style="fill: rgb(64, 214, 222);"/>
    <path d="M 175 579 C 98 536 127 460 219 460 C 246 460 287 453 310 445 C 365 426 370 426 370 450 C 370 523 234 612 175 579 Z" style="fill: rgb(255, 255, 255);"/>
    <path d="M 1863 619 C 1812 594 1769 547 1733 477 C 1711 434 1706 411 1706 345 C 1705 266 1705 265 1731 262 C 1753 259 1762 266 1784 303 C 1827 377 1861 400 1931 400 C 2028 400 2080 439 2080 512 C 2080 566 2065 597 2028 620 C 1985 646 1917 646 1863 619 Z" style="fill: rgb(64, 214, 222);"/>
    <path d="M 1913 580 C 1900 575 1890 574 1890 578 C 1890 581 1868 561 1840 532 C 1794 483 1778 448 1798 436 C 1803 433 1828 437 1855 445 C 1881 453 1923 460 1947 460 C 2024 460 2053 514 2004 564 C 1976 591 1951 595 1913 580 Z" style="fill: rgb(255, 255, 255);"/>
  </g>
</svg>