<?xml version="1.0" standalone="no"?>
<!DOCTYPE svg PUBLIC "-//W3C//DTD SVG 20010904//EN"
 "http://www.w3.org/TR/2001/REC-SVG-20010904/DTD/svg10.dtd">
<svg version="1.0" xmlns="http://www.w3.org/2000/svg"
 width="215.000000pt" height="234.000000pt" viewBox="0 0 215.000000 234.000000"
 preserveAspectRatio="xMidYMid meet">
<metadata>
Created by potrace 1.10, written by Peter Selinger 2001-2011
</metadata>
<g transform="translate(0.000000,234.000000) scale(0.100000,-0.100000)"
fill="#40d6de" stroke="#000000">
<path d="M1072 2248 c-7 -7 -12 -22 -12 -34 0 -86 -100 -293 -335 -695 -191
-326 -278 -497 -302 -589 -22 -86 -21 -244 2 -330 29 -111 83 -206 166 -294
88 -93 168 -145 284 -183 69 -23 96 -27 205 -27 108 0 136 4 205 27 225 74
390 249 451 477 23 87 23 244 1 330 -23 86 -95 234 -269 548 -207 374 -301
581 -324 707 -3 22 -11 48 -16 58 -10 20 -39 22 -56 5z m53 -78 c17 -79 45
-155 110 -295 16 -33 28 -66 28 -72 0 -7 4 -13 9 -13 8 0 31 -46 32 -65 1 -5
7 -17 15 -25 26 -30 170 -303 164 -313 -3 -6 -2 -7 4 -4 8 5 117 -185 118
-205 0 -3 4 -10 8 -14 11 -11 73 -145 93 -202 24 -67 29 -262 9 -349 -17 -75
-65 -181 -98 -218 -12 -13 -35 -43 -51 -65 -17 -22 -32 -40 -35 -40 -3 0 -23
-15 -45 -34 -53 -48 -161 -103 -235 -120 -70 -16 -256 -19 -322 -5 -114 25
-227 89 -312 176 -55 57 -117 141 -117 159 0 7 -9 28 -20 46 -48 81 -66 293
-35 413 13 50 121 284 154 335 6 8 36 60 67 115 70 125 79 137 89 127 5 -4 5
-1 1 6 -4 7 8 37 28 70 155 257 272 497 295 605 11 52 14 57 26 40 7 -10 16
-34 20 -53z"/>
<path d="M1087 2063 c-3 -5 -43 -82 -89 -173 -47 -91 -101 -192 -122 -225 -20
-33 -40 -67 -46 -75 -61 -100 -230 -400 -274 -486 -74 -145 -97 -225 -96 -334
1 -241 133 -454 342 -553 113 -54 177 -70 283 -70 336 0 615 281 615 618 0
107 -20 185 -77 302 -26 54 -47 104 -46 111 0 6 -3 12 -7 12 -8 0 -27 34 -128
220 -37 70 -69 125 -86 153 -34 54 -165 320 -196 397 -18 47 -38 91 -43 98
-11 14 -24 16 -30 5z m31 -56 c19 -64 155 -338 267 -537 241 -430 295 -558
295 -702 -1 -250 -168 -486 -403 -568 -87 -31 -249 -38 -336 -16 -318 81 -513
392 -446 711 19 90 96 242 300 590 156 267 295 526 295 552 0 28 16 11 28 -30z"/>
<path d="M1066 1334 c-3 -9 -6 -33 -6 -54 0 -36 -2 -38 -38 -44 -84 -13 -162
-102 -162 -185 0 -53 15 -89 53 -129 45 -48 80 -63 166 -74 92 -11 137 -32
162 -72 36 -59 15 -122 -54 -158 -98 -50 -233 -5 -253 86 -8 39 -22 56 -45 56
-24 0 -33 -17 -31 -58 6 -79 79 -153 174 -176 24 -5 27 -11 30 -53 6 -85 68
-84 68 1 l0 42 56 18 c135 42 190 178 116 288 -37 56 -118 98 -190 98 -91 0
-176 59 -176 124 0 71 71 126 165 126 83 0 144 -43 158 -114 8 -37 34 -55 59
-40 26 17 19 87 -13 134 -27 39 -108 90 -144 90 -18 0 -21 6 -21 39 0 57 -8
71 -40 71 -16 0 -30 -7 -34 -16z m49 -41 c0 -23 6 -44 16 -54 10 -10 14 -20
11 -24 -4 -3 1 -3 10 0 20 8 85 -21 116 -52 13 -13 20 -23 17 -23 -4 0 1 -7
10 -16 9 -10 14 -25 12 -36 -3 -10 -1 -16 4 -12 5 3 9 -6 9 -20 0 -14 -2 -26
-5 -26 -11 0 -45 46 -45 61 0 23 -33 55 -84 81 -88 45 -229 2 -258 -78 -6 -18
-15 -31 -20 -28 -4 3 0 -16 11 -43 21 -54 87 -113 127 -113 13 0 24 -3 24 -7
0 -5 19 -8 43 -9 52 -1 82 -9 116 -30 31 -20 65 -54 54 -54 -4 0 -2 -4 5 -9
31 -19 32 -149 2 -159 -5 -2 -8 -7 -5 -11 8 -14 -52 -59 -101 -76 -64 -22 -74
-31 -74 -71 0 -30 -14 -53 -26 -41 -2 2 -5 21 -6 41 -1 42 -8 49 -65 69 -46
16 -102 56 -102 74 -1 6 -6 13 -12 15 -6 2 -12 23 -15 46 -3 32 0 42 11 42 8
0 15 -5 15 -12 0 -6 9 -31 21 -54 15 -33 30 -47 64 -61 24 -9 42 -20 40 -24
-8 -11 146 1 155 12 3 4 23 22 45 40 38 32 40 38 40 86 0 46 -4 56 -35 88 -38
39 -107 65 -175 65 -58 0 -146 56 -168 107 -21 50 -19 152 3 138 5 -3 7 0 5 7
-7 18 33 61 47 52 6 -4 8 -3 4 4 -6 9 12 20 39 23 6 0 16 5 23 11 7 6 15 8 18
5 14 -14 43 31 46 71 2 30 7 42 19 42 12 0 15 -9 14 -37z"/>
<path d="M1548 743 c-9 -10 -18 -38 -21 -62 -8 -66 -71 -184 -127 -239 -27
-26 -71 -59 -99 -73 -49 -23 -71 -54 -56 -78 11 -19 59 -11 110 18 132 76 230
227 251 381 5 42 4 49 -14 59 -26 14 -26 14 -44 -6z m34 -54 c-4 -52 -31 -139
-58 -184 -57 -97 -200 -214 -244 -200 -11 3 -20 11 -20 16 0 6 4 8 9 5 5 -4
11 -3 13 2 1 4 28 23 58 42 63 40 125 100 135 130 4 11 11 17 17 14 6 -4 8 -3
5 3 -4 6 3 27 13 49 11 21 20 44 20 52 0 7 3 11 8 9 4 -3 8 15 10 40 3 52 9
66 25 60 7 -2 11 -19 9 -38z"/>
<path d="M1200 1891 c0 -6 4 -13 10 -16 6 -3 7 1 4 9 -7 18 -14 21 -14 7z"/>
<path d="M138 625 c-35 -20 -58 -64 -58 -112 0 -74 52 -113 149 -113 70 0 104
-23 147 -97 22 -37 31 -44 53 -41 24 3 26 7 29 62 6 108 -52 225 -139 283 -50
33 -139 42 -181 18z m122 -15 c46 -13 127 -92 152 -148 11 -24 22 -73 25 -107
4 -57 2 -63 -14 -61 -10 2 -23 13 -29 25 -11 21 -49 65 -79 89 -8 7 -44 15
-79 17 -73 4 -131 28 -122 51 3 8 2 13 -3 10 -14 -9 -4 82 11 97 37 37 76 45
138 27z"/>
<path d="M175 579 c-77 -43 -48 -119 44 -119 27 0 68 -7 91 -15 55 -19 60 -19
60 5 0 73 -136 162 -195 129z m111 -43 c22 -15 74 -77 74 -88 0 -3 -17 3 -37
13 -24 12 -58 19 -94 19 -63 0 -85 15 -74 50 13 41 73 43 131 6z"/>
<path d="M1863 619 c-51 -25 -94 -72 -130 -142 -22 -43 -27 -66 -27 -132 -1
-79 -1 -80 25 -83 22 -3 31 4 53 41 43 74 77 97 147 97 97 0 149 39 149 112 0
54 -15 85 -52 108 -43 26 -111 26 -165 -1z m140 -11 c12 -6 28 -17 35 -25 14
-14 23 -86 14 -111 -8 -22 -65 -45 -107 -44 -56 3 -122 -33 -164 -88 -51 -69
-63 -65 -58 14 7 96 40 156 122 225 46 39 116 52 158 29z"/>
<path d="M1913 580 c-13 -5 -23 -6 -23 -2 0 3 -22 -17 -50 -46 -46 -49 -62
-84 -42 -96 5 -3 30 1 57 9 26 8 68 15 92 15 77 0 106 54 57 104 -28 27 -53
31 -91 16z m89 -46 c17 -38 -4 -54 -71 -54 -36 0 -70 -7 -94 -19 -20 -10 -37
-15 -37 -11 0 20 79 92 114 104 48 16 74 10 88 -20z"/>
</g>
</svg>
